#!OML:ASF H:\Dans Jumps\Project 1\Capture day 1\Session 1\subject.ASF
:FULLY-SPECIFIED
:DEGREES
362
root 0.386645 21.8433 -5.45518 9.82265 2.91861 -0.318843
lowerback 11.8955 -0.910856 -2.87211
upperback 4.54297 -1.44376 2.53212
thorax -1.77009 -0.759288 4.45239
lowerneck -11.4573 0.364775 -0.705881
upperneck 23.9399 0.551913 0.404226
head 9.42142 0.234597 0.321403
rclavicle -2.96189e-014 7.15625e-015
rhumerus -22.5245 -20.4234 -79.9285
rradius 22.5297
rwrist 38.704
rhand -20.8014 -28.8357
rfingers 7.12502
rthumb 5.56606 -58.7426
lclavicle -2.96189e-014 7.15625e-015
lhumerus -17.6416 10.3187 87.3826
lradius 7.60861
lwrist -5.99692
lhand -24.5964 -6.8994
lfingers 7.12502
lthumb 1.90138 23.0719
rfemur -44.8022 -7.58428 22.6422
rtibia 46.9096
rfoot 13.7894 -3.92804
rtoes 16.0471
lfemur -43.4536 12.7802 -22.3815
ltibia 44.2448
lfoot 13.0034 1.06797
ltoes 3.1393
363
root 0.389396 21.7479 -5.31129 9.84607 2.97295 -0.351919
lowerback 11.9813 -0.905699 -2.789
upperback 4.55765 -1.4278 2.57332
thorax -1.80416 -0.750398 4.4487
lowerneck -11.501 0.324727 -0.625224
upperneck 23.9001 0.489906 0.360083
head 9.41647 0.208506 0.285495
rclavicle -2.96189e-014 8.34896e-015
rhumerus -22.7966 -21.1247 -79.6467
rradius 22.1527
rwrist 39.374
rhand -21.0159 -28.8896
rfingers 7.12502
rthumb 5.35902 -58.8018
lclavicle -2.96189e-014 8.34896e-015
lhumerus -17.8969 10.3769 87.6263
lradius 6.9117
lwrist -6.15945
lhand -25.1833 -7.26187
lfingers 7.12502
lthumb 1.33458 22.7137
rfemur -45.0686 -7.31844 22.5615
rtibia 44.8082
rfoot 14.1091 -3.85011
rtoes 15.3222
lfemur -43.654 12.8034 -22.6273
ltibia 42.0758
lfoot 13.2326 0.360625
ltoes 0.997163
364
root 0.39226 21.6404 -5.15824 9.83044 3.01737 -0.371772
lowerback 11.9559 -0.906188 -2.71931
upperback 4.57926 -1.41936 2.60527
thorax -1.76968 -0.746955 4.44042
lowerneck -11.4914 0.284299 -0.570207
upperneck 23.912 0.429375 0.328497
head 9.41941 0.182016 0.258435
rclavicle 1.64991e-014 -1.82882e-014
rhumerus -23.0804 -21.8928 -79.3341
rradius 21.7539
rwrist 40.0204
rhand -21.1968 -28.9786
rfingers 7.12502
rthumb 5.18437 -58.8952
lclavicle 1.64991e-014 -1.82882e-014
lhumerus -18.1758 10.4353 87.8375
lradius 6.24764
lwrist -6.1255
lhand -25.6446 -7.5429
lfingers 7.12502
lthumb 0.888965 22.435
rfemur -45.125 -6.99498 22.3864
rtibia 42.6101
rfoot 14.5607 -3.77561
rtoes 14.7316
lfemur -43.6202 12.7869 -22.818
ltibia 39.7354
lfoot 13.5708 -0.3427
ltoes -1.20333
365
root 0.39559 21.5198 -4.99518 9.76892 3.04733 -0.370133
lowerback 11.8148 -0.912197 -2.66632
upperback 4.6067 -1.41904 2.6234
thorax -1.66542 -0.749192 4.42462
lowerneck -11.4308 0.24515 -0.545996
upperneck 23.9971 0.373635 0.310293
head 9.43822 0.156281 0.241824
rclavicle 3.18055e-015 1.03368e-014
rhumerus -23.3658 -22.7358 -78.9956
rradius 21.325
rwrist 40.6315
rhand -21.2956 -29.1463
rfingers 7.12502
rthumb 5.08898 -59.0652
lclavicle 3.18055e-015 1.03368e-014
lhumerus -18.4836 10.4941 88.0115
lradius 5.6547
lwrist -5.91984
lhand -25.8571 -7.51177
lfingers 7.12502
lthumb 0.683771 22.4669
rfemur -44.9764 -6.63376 22.1213
rtibia 40.3766
rfoot 15.0822 -3.71931
rtoes 14.3042
lfemur -43.3514 12.7341 -22.9563
ltibia 37.2844
lfoot 13.9893 -0.941069
ltoes -3.23269
366
root 0.39974 21.3854 -4.82176 9.65335 3.06219 -0.349272
lowerback 11.5613 -0.924292 -2.6233
upperback 4.63871 -1.42701 2.62805
thorax -1.49461 -0.757005 4.39798
lowerneck -11.3238 0.209365 -0.553969
upperneck 24.1619 0.326691 0.302198
head 9.47617 0.132674 0.235255
rclavicle -1.33186e-014 2.90226e-014
rhumerus -23.6473 -23.6558 -78.6228
rradius 20.8489
rwrist 41.2634
rhand -21.3296 -29.3481
rfingers 7.12502
rthumb 5.05614 -59.2678
lclavicle -1.33186e-014 2.90226e-014
lhumerus -18.812 10.5537 88.146
lradius 5.0842
lwrist -5.72722
lhand -25.9594 -7.41493
lfingers 7.12502
lthumb 0.584918 22.564
rfemur -44.6338 -6.26304 21.7903
rtibia 38.1768
rfoot 15.5918 -3.69099
rtoes 13.9755
lfemur -42.8535 12.6399 -23.031
ltibia 34.7928
lfoot 14.4653 -1.34345
ltoes -4.87862
367
root 0.404744 21.2363 -4.63834 9.48269 3.05926 -0.311634
lowerback 11.1987 -0.938897 -2.5861
upperback 4.6737 -1.43821 2.61867
thorax -1.26122 -0.767648 4.35711
lowerneck -11.1774 0.173672 -0.58545
upperneck 24.4027 0.284032 0.296383
head 9.53346 0.109021 0.23406
rclavicle 2.80286e-014 -7.55382e-015
rhumerus -23.9181 -24.6509 -78.2139
rradius 20.32
rwrist 41.9792
rhand -21.3133 -29.5743
rfingers 7.12502
rthumb 5.0718 -59.4936
lclavicle 2.80286e-014 -7.55382e-015
lhumerus -19.1809 10.6068 88.2444
lradius 4.59424
lwrist -5.65504
lhand -25.9469 -7.20539
lfingers 7.12502
lthumb 0.59699 22.7735
rfemur -44.1232 -5.90314 21.4191
rtibia 36.0816
rfoot 16.0463 -3.70985
rtoes 13.711
lfemur -42.1528 12.499 -23.0322
ltibia 32.3354
lfoot 14.9452 -1.52707
ltoes -6.17254
